<?xml version="1.0" encoding="UTF-8"?>
<svg id="logo-text" xmlns="http://www.w3.org/2000/svg" xmlns:xlink="http://www.w3.org/1999/xlink" viewBox="547.21 0 1399.33 393.36" preserveAspectRatio="xMidYMid meet">
  <defs>
    <style>
      .cls-1 {
        fill: url(#Dégradé_sans_nom_216);
      }
    </style>
    <linearGradient id="Dégradé_sans_nom_216" data-name="Dégradé sans nom 216" x1="547.21" y1="196.68" x2="1946.54" y2="196.68" gradientUnits="userSpaceOnUse">
      <stop offset="0" stop-color="#0b8bf4"/>
      <stop offset="1" stop-color="#703bf2"/>
    </linearGradient>
  </defs>
  <g id="text">
    <path class="cls-1" d="m709.58,263.74c0,27.71-18.84,41.01-45.72,41.01h-116.65V88.62h116.65c26.88,0,45.72,14.96,45.72,42.67v38.24c0,15.52-8.31,22.45-15.79,27.99,7.21,5.54,15.79,13.02,15.79,27.98v38.24Zm-124.41-138.82v52.09h67.05c12.47,0,19.4-6.65,19.4-21.34v-9.7c0-14.68-7.21-21.06-19.95-21.06h-66.5Zm0,88.39v55.14h66.5c12.74,0,19.95-6.1,19.95-21.34v-11.36c0-14.96-6.93-22.17-19.4-22.44h-67.05Z"/>
    <path class="cls-1" d="m776.09,304.74h-34.64V88.62h34.64v216.12Z"/>
    <path class="cls-1" d="m954.54,263.18c0,28.26-19.95,41.56-46.27,41.56h-55.42c-26.32,0-46.27-14.13-46.27-42.39v-77.3c0-28.26,19.95-41.01,46.27-41.01h55.42c26.32,0,46.27,11.91,46.27,40.18v78.97Zm-113.32-11.08c0,15.24,8.59,20.51,22.72,20.51h29.09c14.96,0,27.15-1.94,27.15-20.51v-55.14c0-18.84-12.19-20.5-27.15-20.5h-29.09c-14.13,0-22.72,5.27-22.72,20.5v55.14Z"/>
    <path class="cls-1" d="m1028.53,304.74c-26.32,0-46.27-13.58-46.27-41.84v-78.41c0-28.26,19.95-40.46,46.27-40.46h75.37v32.42h-65.95c-12.74,0-21.06,5.27-21.06,20.5v55.14c0,15.24,8.31,20.51,21.06,20.51h65.95v32.14h-75.37Z"/>
    <path class="cls-1" d="m1163.48,219.68l64.84-75.64h42.39l-69.27,80.35,71.21,80.35h-43.22l-65.94-74.54v74.54h-34.64V88.62h34.64v131.06Z"/>
    <path class="cls-1" d="m1428.93,304.74h-97.81c-26.32,0-45.99-14.13-45.99-42.67v-77.58c0-28.26,19.95-40.46,46.27-40.46h55.69c26.32,0,45.16,13.02,45.16,41.29v29.09l-112.22,41.01c0,14.68,8.31,17.18,25.77,17.18h83.12v32.14Zm-109.45-81.74l78.14-29.09v-2.5c0-11.91-4.43-14.96-24.94-14.96h-29.09c-19.12,0-24.11,8.31-24.11,22.44v24.11Z"/>
    <path class="cls-1" d="m1570.52,144.04v-55.42h34.36v174.29c0,28.26-19.95,41.84-46.27,41.84h-55.14c-26.32,0-46.27-13.58-46.27-41.84v-78.41c0-28.26,19.95-40.46,46.27-40.46h67.05Zm0,32.42h-53.76c-13.58,0-24.94,2.22-24.94,20.5v55.14c0,18.01,11.36,20.51,24.94,20.51h31.03c13.85,0,22.72-5.27,22.72-20.51v-75.64Z"/>
    <path class="cls-1" d="m1777.79,304.74h-97.81c-26.32,0-45.99-14.13-45.99-42.67v-77.58c0-28.26,19.95-40.46,46.27-40.46h55.69c26.32,0,45.16,13.02,45.16,41.29v29.09l-112.22,41.01c0,14.68,8.31,17.18,25.77,17.18h83.12v32.14Zm-109.45-81.74l78.14-29.09v-2.5c0-11.91-4.43-14.96-24.94-14.96h-29.09c-19.12,0-24.11,8.31-24.11,22.44v24.11Z"/>
    <path class="cls-1" d="m1890.02,224.11l56.52,80.63h-41.01l-36.02-49.32-36.3,49.32h-41.01l56.8-80.63-56.53-80.08h41.56l35.47,48.49,35.47-48.49h41.29l-56.25,80.08Z"/>
  </g>
</svg>
